<?xml version="1.0" encoding="utf-8"?>
<!-- Generator: Adobe Illustrator 16.0.0, SVG Export Plug-In . SVG Version: 6.00 Build 0)  -->
<!DOCTYPE svg PUBLIC "-//W3C//DTD SVG 1.1//EN" "http://www.w3.org/Graphics/SVG/1.1/DTD/svg11.dtd">
<svg version="1.1" id="Layer_1" xmlns="http://www.w3.org/2000/svg" xmlns:xlink="http://www.w3.org/1999/xlink" x="0px" y="0px"
	 width="2862px" height="595px" viewBox="0 0 2862 595" enable-background="new 0 0 2862 595" xml:space="preserve">
<path fill-rule="evenodd" clip-rule="evenodd" d="M149.845,118.385l20.702-49.56l716.317,0.003l-20.702,49.558h50.838
	l-32.487,77.242c42.022,28.74,74.68,78.863,82.243,128.644c10.938,71.99-44.243,125.997-97.894,163.861
	c-134.144,94.672-318.462,95.113-471.239,52.246c-37.684-10.573-75.135-23.37-110.809-39.526
	c-32.937-14.917-71.776-36.083-95.444-64.917l-169.241-0.11l80.732-191.147l-54.566-0.035l53.133-126.259H149.845z"/>
<path fill-rule="evenodd" clip-rule="evenodd" fill="#61C2EE" d="M159.284,132.558l20.702-49.56l685.596,0.003l-20.702,49.557
	h50.782l-28.869,68.64l1.431,0.847c42.673,25.246,77.059,75.259,84.519,124.355c10.018,65.925-43.386,115.805-92.054,150.152
	c-130.483,92.09-310.706,91.855-459.237,50.18c-36.779-10.319-74-23.034-108.79-38.791c-29.618-13.413-72.3-35.647-94.328-66.174
	l-154.839-0.102l80.732-191.147l-54.597-0.035l41.21-97.926H159.284L159.284,132.558z M852.341,235.559l-32.32,76.845l27.764,0.002
	c1.201-4.979,2.125-9.82,2.831-14.241c2.548-15.97,3.418-32.759,2.733-48.918C853.227,246.344,852.917,240.907,852.341,235.559z"/>
<polygon fill-rule="evenodd" clip-rule="evenodd" fill="#196CB6" points="120.252,146.731 874.325,146.732 798.684,326.576 
	868.859,326.579 834.596,408.009 64.86,407.507 145.592,216.359 90.966,216.324 "/>
<path fill="#FFFFFF" stroke="#1C479E" stroke-width="0.216" stroke-miterlimit="22.9256" d="M104.336,384.514h73.674l76.636-183.565
	h59.24l16.107-38.836H135.858l-16.107,38.836h61.22L104.336,384.514L104.336,384.514z M460.284,331.682
	c-3.828,9.177-11.484,17.796-22.969,25.953c-11.484,8.156-25.569,14.645-42.182,19.557c-16.685,4.866-34.093,7.322-52.294,7.322
	c-11.846,0-23.691-1.437-35.537-4.356c-11.918-2.873-21.669-7.322-29.325-13.347c-7.729-6.024-11.557-13.394-11.557-22.06
	c0-4.264,1.011-8.62,2.962-13.069l48.682-116.738c3.829-9.037,11.557-17.935,23.186-26.601c11.629-8.713,25.858-15.71,42.76-21.04
	c16.83-5.33,34.454-8.017,52.8-8.017c12.712,0,24.774,1.575,36.188,4.773c11.412,3.151,20.73,7.878,27.953,14.181
	c7.15,6.256,10.762,13.764,10.762,22.43c0,4.82-1.011,9.593-2.962,14.274L460.284,331.682L460.284,331.682z M433.414,219.995
	c1.373-3.8,2.095-6.998,2.095-9.547c-0.289-2.502-1.011-4.681-2.095-6.488c-1.155-1.808-2.817-3.244-4.984-4.264
	c-2.167-1.066-4.767-1.622-7.728-1.715c-6.212,0-12.063,1.808-17.697,5.376c-5.561,3.568-10.04,9.269-13.435,17.147l-44.638,107.006
	c-1.155,3.43-1.661,5.654-1.661,6.628c0,3.429,1.517,6.163,4.623,8.156c3.106,1.992,6.862,2.966,11.195,2.966
	c5.778,0,11.557-1.482,17.19-4.449c5.634-3.012,9.535-6.997,11.629-11.956L433.414,219.995L433.414,219.995z M464.112,384.514
	h73.674l44.205-105.616h38.932l-44.204,105.616h73.89l92.671-222.401h-73.674l-32.576,77.811h-38.932l32.359-77.811h-73.674
	L464.112,384.514L464.112,384.514z M672.134,384.514l92.671-222.401h73.673l-76.202,183.427h73.675l-16.541,38.975H672.134z"/>
<path fill-rule="evenodd" clip-rule="evenodd" fill="#FFFFFF" d="M263.144,335.444c6.227,40.98,100.081,80.531,149.527,73.018
	c-2.681,2.334-6.019,3.503-10.997,4.259l-13.91,2.114c-40.362,6.132-130.986-36.138-136.882-74.94l-0.192-1.265
	c-1.672-11.002,8.605-20.456,19.88-22.427C266.574,320.905,261.842,326.874,263.144,335.444z"/>
<path fill-rule="evenodd" clip-rule="evenodd" fill="#FFFFFF" d="M607.235,408.96c-33.688,4.354-79.529-1.616-113.571-7.256
	c-9.607-1.591-27.973-4.758-36.7-5.427l-3.868-9.668c0.031-1.883-2.827-16.33-4.334-20.106
	C497.117,389.224,564.126,387.789,607.235,408.96z"/>
<path fill-rule="evenodd" clip-rule="evenodd" fill="#BA1E20" d="M263.144,335.444c-1.302-8.57,3.43-14.539,7.426-19.241
	c-11.275,1.971-21.552,11.425-19.88,22.427l0.192,1.265c5.896,38.803,96.52,81.072,136.882,74.94l13.91-2.114
	c4.978-0.756,8.315-1.925,10.997-4.259C363.225,415.976,269.371,376.425,263.144,335.444L263.144,335.444z M433.624,384.578
	l1.153,7.588c1.105,7.274-11.961,33.189-15.344,40.366c-6.21,13.178-13.531,24.828-32.53,27.715l-8.852,1.345
	c-48.931,7.435-150.213-34.955-156.619-77.115l-1.345-8.853c-1.414-9.302,10.324-29.913,13.9-38.061
	c5.345-12.178,11.281-25.278,29.108-27.987l21.498-3.267C329.248,299.524,427.527,344.46,433.624,384.578z"/>
<path fill-rule="evenodd" clip-rule="evenodd" fill="#FFFFFF" d="M870.282,426.39c-21.67,18.204-79.235,43.606-117.47,49.416
	c1.59-1.87,37.269-20.735,43.279-24.294c13.804-8.173,28.427-17.86,40.159-27.714c17.209-14.451,54.07-50.822,52.361-76.009
	c-13.014,20.539-14.332,23.517-37.782,37.325c-12.552,7.393-41.596,20.018-59.188,22.69c0.022-0.025,36.023-19.83,41.271-23.526
	c14.802-10.424,21.434-18.169,31.502-31.841c19.426-26.378,24.82-51.628,17.949-96.85
	C942.775,298.318,909.561,404.748,870.282,426.39z"/>
<path fill-rule="evenodd" clip-rule="evenodd" fill="#61C2EE" d="M630.311,512.531c-2.793-1.229-56.325-3.738-65.131-4.59
	c-21.64-2.094-42.044-5.081-63.204-8.731c-20.244-3.492-38.425-9.797-56.452-16.379c-9.097-3.321-18.716-9.541-25.913-12.095
	c-4.778-1.694-25.835,5.285-35.269,6.719C406.629,499.845,577.199,520.602,630.311,512.531L630.311,512.531z M439.42,441.433
	l3.707-20.202c5.528,0.788,6.822-4.599,14.117-13.468c11.658,3.435,53.292,25.544,65.32,28.394
	c21.955,5.2,50.84,10.334,73.507,13.044c27.781,3.322,49.873,3.79,80.463,5.122c29.146,1.269,57.905-5.481,88.299-10.1
	c-6.104,7.183-61.941,21.056-79.202,23.678l-27.82,4.228c-45.096,6.853-84.932,7.138-124.355,5.681
	c-19.009-0.701-109.926-12.607-118.172-20.891L439.42,441.433L439.42,441.433z M604.054,407.845
	c-5.175-2.541-67.347-11.517-80.243-14.572c-29.937-7.091-47.384-12.119-73.14-24.222c4.488,11.248,5.064,11.585,5.127,24.311
	c8.727,0.669,28.896,4.841,38.503,6.433c11.146,1.847,23.304,3.317,34.938,4.411C546.808,405.857,587.28,410.013,604.054,407.845
	L604.054,407.845z M433.624,384.578c-6.096-40.118-104.375-85.054-149.031-78.269l-21.498,3.267
	c-17.828,2.709-23.763,15.81-29.108,27.987c-3.576,8.147-15.314,28.759-13.9,38.061l1.345,8.853
	c6.406,42.16,107.688,84.55,156.619,77.115l8.852-1.345c19-2.887,26.32-14.537,32.53-27.715
	c3.383-7.177,16.449-33.092,15.344-40.366L433.624,384.578L433.624,384.578z M736.379,410.301
	c-37.347,5.675-81.318,4.166-115.805,4.089c-18.548-0.04-37.354-1.437-54.914-1.685c-13.478-0.191-44.851-3.639-54.385-2.406
	c10.385,10.432,88.541,22.809,110.627,26.697c21.066,3.71,104.322,8.529,130.69,2.438l54.386-15.847
	c-13.871,29.522-113.207,54.721-163.879,62.42l-21.498,3.267c-11.2,1.702-31.184,4.746-41.496,4.496
	c-8.286-0.2-32.67-0.867-38.06-0.171c16.004,10.141,111.197,12.861,143.521,7.949l35.535-4.883l28.573-7.445
	c-46.754,44.265-187.193,31.997-246.442,28.114c-37.038-2.427-80.805-8.224-115.193-16.323
	c-47.725-11.24-175.329-62.028-183.732-117.334c-3.646-23.995,24.868-86.016,50.875-89.967
	c50.573-10.834,100.871,0.805,142.412,29.638c27.575,19.141,61.828,38.718,95.063,49.692
	c37.191,12.282,72.104,20.762,113.101,27.913C620.559,403.535,735.7,405.146,736.379,410.301z"/>
<path fill-rule="evenodd" clip-rule="evenodd" fill="#FFFFFF" d="M677.063,508.879c-124.944,18.054-248.763-8.061-292.721-31.424
	c9.434-1.434,28.263-6.453,33.566-7.813C488.31,491.58,551.628,513.429,677.063,508.879z"/>
<path fill-rule="evenodd" clip-rule="evenodd" fill="#FFFFFF" d="M532.68,457.503c-26.341-5.445-53.391-19.059-81.03-39.438
	c5.528,0.434,28.247,7.541,35.544,9.691c11.658,3.434,23.342,5.551,35.37,8.4c21.955,5.2,50.84,10.334,73.507,13.044
	c27.781,3.322,49.873,3.79,80.463,5.122c29.146,1.269,57.905-5.481,88.299-10.1c-6.104,7.183-61.941,21.056-79.202,23.678
	l-27.82,4.228c-45.096,6.853-84.932,7.138-124.355,5.681c-19.009-0.701-91.866-13.635-105.51-19.917
	C462.935,455.517,496.99,462.926,532.68,457.503z"/>
<path fill-rule="evenodd" clip-rule="evenodd" fill="#196CB6" d="M882.365,255.587c6.871,45.222,1.477,70.472-17.949,96.85
	c-10.068,13.672-16.7,21.417-31.502,31.841c-5.248,3.696-41.249,23.501-41.271,23.526c17.592-2.673,46.636-15.298,59.188-22.69
	c23.45-13.809,24.769-16.786,37.782-37.325c1.709,25.187-35.152,61.558-52.361,76.009c-11.732,9.854-26.355,19.541-40.159,27.714
	c-6.011,3.559-41.689,22.424-43.279,24.294c38.234-5.81,95.8-31.212,117.47-49.416C917.634,386.614,936.535,301.63,882.365,255.587
	L882.365,255.587z M605.759,400.953c11.903,2.076,129.091,7.719,129.282,8.982c-37.347,5.675-79.98,4.531-114.467,4.454
	c-18.548-0.04-37.354-1.437-54.914-1.685c-13.478-0.191-44.851-3.639-54.385-2.406c10.385,10.432,88.541,22.809,110.627,26.697
	c21.066,3.71,104.322,8.529,130.69,2.438l54.386-15.847c-13.871,29.522-113.207,54.721-163.879,62.42l-21.498,3.267
	c-11.2,1.702-31.184,4.746-41.496,4.496c-8.286-0.2-32.67-0.867-38.06-0.171c16.004,10.141,111.197,12.861,143.521,7.949
	l35.535-4.883l28.573-7.445c-46.754,44.265-187.193,31.997-246.442,28.114c-37.038-2.427-78.856-15.041-113.245-23.141
	c-47.726-11.241-171.92-55.212-180.323-110.517c-4.005-26.357,19.625-80.607,49.17-85.098l22.762-3.458
	c33.448-5.083,91.416,15.911,111.615,29.932c27.575,19.14,66.211,37.013,99.445,47.987
	C529.85,385.322,564.763,393.802,605.759,400.953L605.759,400.953z M861.007,214.243c39.075,23.118,70.915,69.477,77.724,114.286
	c9.388,61.788-46.563,108.46-86.214,136.443C725.98,554.276,550.05,553.707,405.28,513.086
	c-54.555-15.307-196.897-61.221-206.611-125.151l-0.769-5.059c-2.202-14.486-0.067-20.854,4.433-30.43l13.669-29.246
	c1.816-16.425,26.569-33.793,48.692-37.155c46.186-7.018,106.469,8.365,143.763,35.082c22.767,16.31,121.632,53.71,157.046,59.754
	c51.874,8.854,127.046,23.868,190.571,14.216l15.175-2.306c23.51-3.572,52.479-16.719,65.327-28.278
	C876.699,328.408,869.741,220.092,861.007,214.243z"/>
<polygon fill-rule="evenodd" clip-rule="evenodd" fill="#BA1E20" points="189.426,97.172 844.301,97.175 823.599,146.732 
	168.724,146.731 "/>
<path fill="#FFFFFF" d="M236.281,134.772h8.387l8.725-20.897h4.934l1.833-4.422h-18.263l-1.834,4.422h4.942L236.281,134.772
	L236.281,134.772z M276.804,128.758c-0.436,1.044-1.308,2.026-2.615,2.954c-1.308,0.929-2.912,1.667-4.803,2.227
	c-1.899,0.554-3.881,0.833-5.953,0.833c-1.349,0-2.697-0.164-4.046-0.496c-1.356-0.327-2.467-0.833-3.338-1.519
	c-0.88-0.686-1.316-1.525-1.316-2.511c0-0.486,0.115-0.981,0.337-1.488l5.542-13.291c0.436-1.029,1.316-2.042,2.64-3.028
	c1.324-0.992,2.944-1.789,4.868-2.395c1.916-0.607,3.922-0.913,6.011-0.913c1.447,0,2.82,0.179,4.119,0.543
	c1.299,0.359,2.36,0.897,3.183,1.615c0.814,0.712,1.225,1.567,1.225,2.553c0,0.549-0.115,1.092-0.337,1.625L276.804,128.758
	L276.804,128.758z M273.745,116.043c0.156-0.433,0.239-0.796,0.239-1.087c-0.033-0.285-0.116-0.533-0.239-0.739
	c-0.131-0.206-0.321-0.369-0.567-0.485c-0.247-0.122-0.543-0.185-0.88-0.195c-0.708,0-1.373,0.206-2.015,0.612
	c-0.633,0.407-1.143,1.055-1.53,1.952l-5.081,12.182c-0.132,0.391-0.189,0.644-0.189,0.754c0,0.391,0.172,0.702,0.526,0.929
	c0.354,0.227,0.781,0.337,1.274,0.337c0.658,0,1.316-0.168,1.957-0.506c0.642-0.343,1.086-0.797,1.324-1.361L273.745,116.043
	L273.745,116.043z M277.239,134.772h8.388l5.032-12.024l0.897,12.024h6.915l10.55-25.319h-6.915l-3.685,8.859l-2.245-8.859h-8.387
	L277.239,134.772L277.239,134.772z M300.922,134.772l10.55-25.319h8.387l-10.55,25.319H300.922L300.922,134.772z M321.8,117.832
	l5.229-2.997l2.221-5.382h-6.916l-2.221,5.382h3.446l-3.495,1.899L321.8,117.832L321.8,117.832z M345.893,128.758
	c-0.436,1.044-1.308,2.026-2.615,2.954c-1.308,0.929-2.911,1.667-4.803,2.227c-1.899,0.554-3.881,0.833-5.953,0.833
	c-1.349,0-2.697-0.164-4.046-0.496c-1.356-0.327-2.467-0.833-3.338-1.519c-0.88-0.686-1.315-1.525-1.315-2.511
	c0-0.486,0.115-0.981,0.337-1.488l1.735-4.11h8.388l-1.76,4.205c0,0.422,0.148,0.775,0.452,1.061
	c0.313,0.279,0.773,0.422,1.398,0.422c0.518,0,1.102-0.111,1.751-0.337c0.649-0.227,1.085-0.591,1.315-1.082
	c0.14-0.322,0.214-0.691,0.214-1.113c0-1.176-0.576-2.248-1.735-3.218c-0.354-0.316-0.962-0.807-1.817-1.467
	c-0.863-0.66-1.505-1.156-1.932-1.482c-0.419-0.333-0.823-0.67-1.192-1.013c-0.37-0.343-0.749-0.754-1.126-1.229
	c-0.403-0.564-0.608-1.188-0.608-1.868c0-0.57,0.156-1.255,0.46-2.058c0.436-1.029,1.315-2.042,2.639-3.028
	c1.324-0.992,2.944-1.789,4.868-2.395c1.916-0.607,3.922-0.913,6.011-0.913c1.447,0,2.82,0.179,4.119,0.543
	c1.299,0.359,2.36,0.897,3.183,1.615c0.814,0.712,1.226,1.567,1.226,2.553c0,0.549-0.115,1.087-0.337,1.625l-0.888,2.211h-8.387
	l1.175-2.849c0-0.844-0.608-1.267-1.825-1.267c-0.567,0-1.184,0.122-1.867,0.37c-0.682,0.248-1.176,0.728-1.488,1.44
	c0,0.723,0.411,1.387,1.233,1.994c1.365,1.029,2.524,1.947,3.47,2.749c0.946,0.807,1.858,1.762,2.747,2.875
	c0.724,0.95,1.085,1.825,1.085,2.627C346.666,126.395,346.403,127.439,345.893,128.758L345.893,128.758z M380.438,128.758
	l5.518-13.291c0.222-0.533,0.337-1.076,0.337-1.625c0-0.986-0.411-1.841-1.226-2.553c-0.822-0.718-1.883-1.256-3.182-1.615
	c-1.299-0.364-2.673-0.543-4.12-0.543c-2.089,0-4.095,0.306-6.011,0.913c-1.924,0.606-3.544,1.403-4.869,2.395
	c-1.324,0.986-2.204,2-2.639,3.028l-5.542,13.291c-0.222,0.506-0.337,1.002-0.337,1.488c0,0.986,0.436,1.825,1.315,2.511
	c0.872,0.686,1.982,1.192,3.339,1.519c1.348,0.333,2.697,0.496,4.045,0.496c2.072,0,4.054-0.279,5.953-0.833
	c1.892-0.559,3.495-1.298,4.803-2.227C379.13,130.784,380.001,129.803,380.438,128.758L380.438,128.758z M377.379,116.043
	l-5.181,12.394c-0.239,0.564-0.683,1.018-1.324,1.361c-0.641,0.338-1.299,0.506-1.957,0.506c-0.494,0-0.921-0.111-1.275-0.337
	c-0.354-0.227-0.526-0.538-0.526-0.929c0-0.111,0.058-0.364,0.189-0.754l5.082-12.182c0.387-0.897,0.896-1.545,1.529-1.952
	c0.642-0.406,1.308-0.612,2.015-0.612c0.337,0.011,0.633,0.074,0.88,0.195c0.246,0.116,0.436,0.279,0.567,0.485
	c0.123,0.206,0.205,0.454,0.238,0.739C377.617,115.247,377.535,115.61,377.379,116.043L377.379,116.043z M380.873,134.772
	l10.55-25.319h8.387l2.245,8.859l3.685-8.859h6.916l-10.55,25.319h-6.916l-0.896-12.024l-5.032,12.024H380.873L380.873,134.772z
	 M404.556,134.772h16.767l1.883-4.437h-8.388l8.675-20.882h-8.387L404.556,134.772L404.556,134.772z M424.282,134.772h8.388
	l10.55-25.319h-8.387L424.282,134.772L424.282,134.772z M435.145,134.772l10.55-25.319h8.387l2.245,8.859l3.684-8.859h6.916
	l-10.55,25.319h-6.916l-0.896-12.024l-5.032,12.024H435.145L435.145,134.772z M458.827,134.772h17.277l1.875-4.437h-8.889
	l3.157-7.608h8.889l1.809-4.416h-8.864l1.875-4.437h8.865l1.834-4.422h-17.276L458.827,134.772L458.827,134.772z M488.43,134.772
	h8.388l5.032-12.024h4.433l-5.032,12.024h8.412l10.55-25.319h-8.388l-3.708,8.859h-4.433l3.684-8.859h-8.387L488.43,134.772
	L488.43,134.772z M536.346,128.758c-0.437,1.044-1.308,2.026-2.615,2.954c-1.308,0.929-2.911,1.667-4.803,2.227
	c-1.898,0.554-3.881,0.833-5.953,0.833c-1.349,0-2.697-0.164-4.045-0.496c-1.357-0.327-2.468-0.833-3.339-1.519
	c-0.88-0.686-1.315-1.525-1.315-2.511c0-0.486,0.115-0.981,0.337-1.488l5.542-13.291c0.436-1.029,1.315-2.042,2.64-3.028
	c1.324-0.992,2.944-1.789,4.868-2.395c1.916-0.607,3.923-0.913,6.011-0.913c1.447,0,2.82,0.179,4.12,0.543
	c1.299,0.359,2.359,0.897,3.182,1.615c0.814,0.712,1.226,1.567,1.226,2.553c0,0.549-0.115,1.092-0.337,1.625L536.346,128.758
	L536.346,128.758z M533.287,116.043c0.155-0.433,0.238-0.796,0.238-1.087c-0.033-0.285-0.115-0.533-0.238-0.739
	c-0.132-0.206-0.321-0.369-0.567-0.485c-0.247-0.122-0.543-0.185-0.88-0.195c-0.708,0-1.374,0.206-2.015,0.612
	c-0.634,0.407-1.144,1.055-1.53,1.952l-5.081,12.182c-0.132,0.391-0.189,0.644-0.189,0.754c0,0.391,0.173,0.702,0.526,0.929
	c0.354,0.227,0.781,0.337,1.274,0.337c0.658,0,1.315-0.168,1.957-0.506c0.642-0.343,1.085-0.797,1.324-1.361L533.287,116.043
	L533.287,116.043z M562.964,124.015h-8.38l-1.809,4.421c-0.305,0.575-0.773,1.039-1.398,1.382c-0.625,0.343-1.25,0.517-1.883,0.517
	c-1.135,0-1.711-0.475-1.711-1.419c0-0.18,0.033-0.391,0.1-0.639l5.081-12.177c0.567-0.971,1.118-1.636,1.669-1.995
	c0.543-0.364,1.168-0.543,1.875-0.543c1.094,0,1.637,0.475,1.637,1.425c0,0.412-0.058,0.76-0.189,1.05l-1.496,3.54h8.388l1.685-4.11
	c0.256-0.681,0.387-1.266,0.387-1.751c0-0.76-0.222-1.424-0.674-1.994c-0.452-0.564-1.069-1.04-1.866-1.419
	c-0.798-0.38-1.711-0.67-2.738-0.86c-1.028-0.19-2.13-0.285-3.298-0.285c-1.85,0-3.709,0.238-5.592,0.718s-3.527,1.192-4.941,2.142
	s-2.409,2.1-2.985,3.445l-5.542,13.295c-0.222,0.506-0.338,1.002-0.338,1.488c0,0.986,0.437,1.825,1.316,2.511
	c0.871,0.686,1.982,1.192,3.339,1.519c1.349,0.333,2.696,0.496,4.045,0.496c2.072,0,4.055-0.279,5.954-0.833
	c1.891-0.559,3.494-1.298,4.802-2.227c1.308-0.928,2.179-1.91,2.615-2.954L562.964,124.015L562.964,124.015z M561.45,134.772
	L572,109.453h8.388l-3.684,8.859l8.141-8.859h8.141l-10.263,11.069l0.938,14.25h-8.141l-0.649-12.024l-5.032,12.024H561.45
	L561.45,134.772z M586.119,134.772h17.276l1.875-4.437h-8.889l3.157-7.608h8.889l1.81-4.416h-8.864l1.874-4.437h8.865l1.833-4.422
	h-17.276L586.119,134.772L586.119,134.772z M616.396,109.453h8.889l-0.288,6.648l5.23-6.648h8.864l-14.259,17.094l-3.446,8.225H613
	l3.445-8.225L616.396,109.453L616.396,109.453z M641.377,134.772h16.767l1.884-4.437h-8.388l8.675-20.882h-8.387L641.377,134.772
	L641.377,134.772z M661.104,134.772h17.277l1.874-4.437h-8.889l3.157-7.608h8.89l1.809-4.416h-8.864l1.875-4.437h8.864l1.834-4.422
	h-17.276L661.104,134.772L661.104,134.772z M691.743,130.969l-2.023,3.804h-8.889l15.007-25.319h12.819l-5.879,25.319h-8.864
	l1.085-3.804H691.743L691.743,130.969z M696.372,126.858l2.911-10.293l-5.566,10.293H696.372L696.372,126.858z M733.564,119.578
	h-10.846l-1.875,4.438h2.459l-1.81,4.421c-0.238,0.564-0.683,1.018-1.323,1.361c-0.642,0.338-1.291,0.506-1.949,0.506
	c-0.501,0-0.93-0.111-1.283-0.337c-0.354-0.227-0.525-0.538-0.525-0.929c0-0.111,0.065-0.364,0.188-0.754l5.082-12.182
	c0.37-0.876,0.888-1.525,1.546-1.952s1.291-0.644,1.899-0.644c0.519,0,0.938,0.158,1.258,0.469c0.321,0.317,0.478,0.712,0.478,1.198
	c0,0.143-0.058,0.433-0.189,0.866l-0.888,2.115h8.379l1.085-2.686c0.223-0.538,0.338-1.076,0.338-1.625
	c0-0.986-0.411-1.841-1.226-2.559c-0.822-0.712-1.883-1.25-3.183-1.614c-1.299-0.359-2.672-0.538-4.119-0.538
	c-2.089,0-4.095,0.306-6.011,0.913c-1.925,0.606-3.545,1.403-4.868,2.395c-1.324,0.986-2.204,2-2.64,3.028L708,128.758
	c-0.156,0.354-0.239,0.786-0.239,1.303c0,0.823,0.329,1.583,0.979,2.285c0.65,0.702,1.62,1.266,2.928,1.693
	c1.3,0.427,2.861,0.639,4.695,0.639c1.719,0,3.947-0.391,6.693-1.171l1.185,1.266h2.96L733.564,119.578L733.564,119.578z
	 M731.904,128.278l7.828-18.825h8.388l-7.878,18.983c-0.065,0.227-0.099,0.406-0.099,0.538c0,0.375,0.14,0.691,0.411,0.96
	s0.724,0.401,1.349,0.401c0.69,0,1.349-0.179,1.989-0.549c0.634-0.364,1.045-0.796,1.233-1.287l7.928-19.046h8.387l-7.828,18.825
	c-0.583,1.34-1.619,2.506-3.124,3.488c-1.497,0.986-3.199,1.73-5.09,2.242c-1.9,0.512-3.685,0.765-5.354,0.765
	c-1.432,0-2.796-0.19-4.104-0.569c-1.308-0.386-2.368-0.939-3.183-1.673c-0.813-0.728-1.217-1.599-1.217-2.596
	C731.542,129.375,731.665,128.827,731.904,128.278L731.904,128.278z M753.852,134.772h17.276l1.874-4.437h-8.889l3.157-7.608h8.89
	l1.809-4.416h-8.864l1.875-4.437h8.864l1.834-4.422h-17.276L753.852,134.772z"/>
<polygon fill-rule="evenodd" clip-rule="evenodd" fill="#FFFFFF" points="208.735,109.53 211.854,119.191 222.007,119.172 
	213.782,125.124 216.938,134.773 208.735,128.79 200.534,134.773 203.689,125.124 195.464,119.172 205.617,119.191 "/>
<polygon fill-rule="evenodd" clip-rule="evenodd" fill="#FFFFFF" points="804.305,109.53 807.424,119.191 817.576,119.172 
	809.351,125.124 812.507,134.773 804.305,128.79 796.103,134.773 799.259,125.124 791.033,119.172 801.186,119.191 "/>
<g>
	<path fill="#595656" d="M1142.486,117.828c18.539-3.617,42.051-5.878,64.659-5.878c32.556,0,61.494,4.521,81.39,22.608
		c18.539,16.73,23.965,37.078,23.965,63.303c0,32.556-15.826,61.946-47.025,76.416v0.904c20.8,8.139,31.199,27.582,37.077,60.138
		c5.879,33.912,14.018,71.442,19.443,82.746h-61.946c-3.617-8.591-10.399-39.338-14.922-72.799
		c-5.426-37.981-14.921-48.833-34.816-48.833h-8.591v121.632h-59.233V117.828z M1201.72,250.764h10.399
		c25.773,0,40.695-20.799,40.695-47.477c0-25.773-10.4-44.312-37.078-45.216c-4.974,0-10.852,0.452-14.017,1.809V250.764z"/>
	<path fill="#595656" d="M1397.502,328.536c0.904,34.364,20.8,47.025,47.025,47.025c16.73,0,31.651-3.618,42.051-7.235l8.14,42.504
		c-15.374,5.878-38.435,9.947-61.042,9.947c-60.138,0-93.146-39.79-93.146-108.971c0-74.155,38.435-118.468,88.625-118.468
		c47.477,0,75.059,37.53,75.059,104.45c0,15.826-0.452,24.416-1.809,30.747H1397.502z M1450.405,286.937
		c0-28.486-7.234-50.643-24.869-50.643c-19.442,0-27.13,28.486-27.582,50.643H1450.405z"/>
	<path fill="#595656" d="M1700.898,196.957c-0.904,19.895-2.261,43.408-2.261,70.085v126.153c0,47.478-8.591,73.703-26.678,90.885
		c-16.277,15.374-39.338,24.417-71.894,24.417c-20.348,0-39.338-3.617-55.164-10.399l10.852-45.669
		c11.305,4.974,25.321,9.496,42.504,9.496c29.843,0,41.599-19.896,41.599-53.808v-13.565h-0.904
		c-7.687,14.018-23.061,22.156-39.79,22.156c-49.738,0-69.182-54.26-69.182-107.163c0-73.703,33.461-116.206,74.607-116.206
		c17.635,0,32.104,9.043,40.694,25.773h0.904l3.166-22.156H1700.898z M1639.856,277.441c0-5.878-0.904-11.756-2.261-16.278
		c-2.713-9.496-9.043-18.086-18.99-18.086c-21.252,0-29.844,28.938-29.844,65.111c0,41.147,11.757,61.946,28.486,61.946
		c7.688,0,15.374-4.069,19.896-15.825c1.809-4.974,2.713-11.757,2.713-17.635V277.441z"/>
	<path fill="#595656" d="M1789.064,328.536c0.904,34.364,20.8,47.025,47.025,47.025c16.73,0,31.651-3.618,42.051-7.235l8.14,42.504
		c-15.374,5.878-38.435,9.947-61.042,9.947c-60.138,0-93.146-39.79-93.146-108.971c0-74.155,38.435-118.468,88.625-118.468
		c47.477,0,75.059,37.53,75.059,104.45c0,15.826-0.452,24.416-1.809,30.747H1789.064z M1841.968,286.937
		c0-28.486-7.234-50.643-24.869-50.643c-19.442,0-27.13,28.486-27.582,50.643H1841.968z"/>
	<path fill="#595656" d="M1929.23,105.167h59.233v312.897h-59.233V105.167z"/>
	<path fill="#595656" d="M2028.702,418.064c0.904-19.443,1.809-44.313,1.809-65.563V105.167h59.233v113.945h0.904
		c10.852-15.826,24.869-25.773,46.12-25.773c42.956,0,62.399,48.382,62.399,108.067c0,77.32-30.748,120.275-71.895,120.275
		c-18.539,0-31.651-7.687-43.407-29.843h-1.356l-3.166,26.226H2028.702z M2089.744,338.936c0,5.426,0.904,10.853,2.261,14.018
		c4.974,15.825,13.112,20.347,20.348,20.347c19.895,0,28.034-24.868,28.034-67.372c0-37.981-8.592-62.851-28.486-62.851
		c-9.044,0-16.73,9.496-19.896,20.347c-1.356,3.618-2.261,9.496-2.261,13.565V338.936z"/>
	<path fill="#595656" d="M2394.948,350.692c0,23.512,0.904,46.572,1.809,67.372h-51.094l-3.165-23.513h-0.905
		c-10.399,14.922-28.486,27.13-51.094,27.13c-42.052,0-59.233-31.199-59.233-90.885v-133.84h59.686v127.51
		c0,28.938,5.426,47.477,22.155,47.477c9.948,0,16.278-7.687,18.991-14.921c2.261-4.521,3.617-11.304,3.617-18.991V196.957h59.233
		V350.692z"/>
	<path fill="#595656" d="M2559.984,414.447c-5.878,2.713-20.8,6.33-37.529,6.33c-56.068,0-92.694-38.886-92.694-111.232
		c0-68.276,40.243-115.754,101.285-115.754c14.017,0,26.678,3.166,32.556,5.878l-7.687,46.573
		c-4.974-1.809-12.209-4.069-22.156-4.069c-28.486,0-45.217,27.13-45.217,65.563c0,40.243,16.73,64.659,44.313,64.659
		c8.591,0,15.826-1.356,22.156-4.521L2559.984,414.447z"/>
	<path fill="#595656" d="M2583.495,105.167h59.233v114.85h0.904c4.974-7.687,11.756-14.017,18.99-18.991
		c8.592-4.974,18.991-7.687,29.843-7.687c40.695,0,56.521,34.365,56.521,90.433v134.292h-59.233V283.772
		c0-21.704-4.069-40.695-21.703-40.695c-9.948,0-18.539,5.878-23.061,20.799c-0.904,3.618-2.261,11.756-2.261,16.73v137.458h-59.233
		V105.167z"/>
</g>
</svg>
